<svg width="90" height="90" viewBox="0 0 90 90" fill="none" xmlns="http://www.w3.org/2000/svg">
<rect width="90" height="90" rx="24" fill="url(#paint0_radial_924_6577)"/>
<g filter="url(#filter0_d_924_6577)">
<path fill-rule="evenodd" clip-rule="evenodd" d="M32 51C39.1797 51 45 45.1797 45 38C45 30.8203 39.1797 25 32 25C24.8203 25 19 30.8203 19 38C19 45.1797 24.8203 51 32 51ZM32 45.8C36.3078 45.8 39.8 42.3078 39.8 38C39.8 33.6922 36.3078 30.2 32 30.2C27.6922 30.2 24.2 33.6922 24.2 38C24.2 42.3078 27.6922 45.8 32 45.8Z" fill="url(#paint1_linear_924_6577)"/>
<path d="M39.3303 58.3303C40.3587 59.3587 40.3693 61.0533 39.1551 61.8538C37.9976 62.6168 36.7207 63.193 35.3708 63.5554C33.1689 64.1465 30.8504 64.1482 28.6476 63.5603C26.4449 62.9724 24.4355 61.8156 22.8211 60.2059C21.8313 59.219 21.0114 58.0832 20.388 56.8449C19.7342 55.5458 20.5878 54.0818 21.9918 53.7027C23.3959 53.3235 24.8098 54.197 25.6361 55.3938C25.9027 55.7799 26.2049 56.1425 26.5397 56.4763C27.5001 57.4339 28.6954 58.1221 30.0058 58.4718C31.3161 58.8215 32.6954 58.8205 34.0052 58.4689C34.4619 58.3463 34.9045 58.1825 35.328 57.9806C36.6408 57.3547 38.302 57.302 39.3303 58.3303Z" fill="url(#paint2_linear_924_6577)"/>
<path d="M57.8 27.6C57.8 26.1641 58.9641 25 60.4 25C61.8359 25 63 26.1641 63 27.6L62.9052 58.8C62.9052 61.4711 59.5 57 57.8 61.2103V27.6Z" fill="url(#paint3_linear_924_6577)"/>
<path d="M68.2 32.8C69.6359 32.8 70.8 33.9641 70.8 35.4C70.8 36.8359 69.6359 38 68.2 38L53.6 38C52.1641 38 51 36.8359 51 35.4C51 33.9641 52.1641 32.8 53.6 32.8L68.2 32.8Z" fill="url(#paint4_linear_924_6577)"/>
<path d="M65.6 58.8C67.0359 58.8 68.2 59.9641 68.2 61.4C68.2 62.8359 67.0359 64 65.6 64H61.2034C60.6751 64 60.154 63.877 59.6814 63.6407L59.1324 63.3662C58.3158 62.9579 57.8 62.1233 57.8 61.2103C57.8 59.8791 58.8791 58.8 60.2103 58.8H65.6Z" fill="url(#paint5_linear_924_6577)"/>
</g>
<defs>
<filter id="filter0_d_924_6577" x="1.4" y="11.4" width="87.2" height="74.2" filterUnits="userSpaceOnUse" color-interpolation-filters="sRGB">
<feFlood flood-opacity="0" result="BackgroundImageFix"/>
<feColorMatrix in="SourceAlpha" type="matrix" values="0 0 0 0 0 0 0 0 0 0 0 0 0 0 0 0 0 0 127 0" result="hardAlpha"/>
<feOffset dy="4"/>
<feGaussianBlur stdDeviation="8.8"/>
<feComposite in2="hardAlpha" operator="out"/>
<feColorMatrix type="matrix" values="0 0 0 0 0 0 0 0 0 0 0 0 0 0 0 0 0 0 0.25 0"/>
<feBlend mode="normal" in2="BackgroundImageFix" result="effect1_dropShadow_924_6577"/>
<feBlend mode="normal" in="SourceGraphic" in2="effect1_dropShadow_924_6577" result="shape"/>
</filter>
<radialGradient id="paint0_radial_924_6577" cx="0" cy="0" r="1" gradientUnits="userSpaceOnUse" gradientTransform="translate(45 101.887) rotate(-90) scale(107.406)">
<stop offset="0.0304613" stop-color="#00E08E"/>
<stop offset="0.682852" stop-color="#11A770"/>
</radialGradient>
<linearGradient id="paint1_linear_924_6577" x1="32" y1="25" x2="32" y2="51" gradientUnits="userSpaceOnUse">
<stop stop-color="white"/>
<stop offset="1" stop-color="white"/>
</linearGradient>
<linearGradient id="paint2_linear_924_6577" x1="32" y1="38" x2="32" y2="64" gradientUnits="userSpaceOnUse">
<stop stop-color="white"/>
<stop offset="1" stop-color="white"/>
</linearGradient>
<linearGradient id="paint3_linear_924_6577" x1="60.9" y1="25" x2="60.9" y2="64" gradientUnits="userSpaceOnUse">
<stop stop-color="white"/>
<stop offset="1" stop-color="white"/>
</linearGradient>
<linearGradient id="paint4_linear_924_6577" x1="60.9" y1="25" x2="60.9" y2="64" gradientUnits="userSpaceOnUse">
<stop stop-color="white"/>
<stop offset="1" stop-color="white"/>
</linearGradient>
<linearGradient id="paint5_linear_924_6577" x1="60.9" y1="25" x2="60.9" y2="64" gradientUnits="userSpaceOnUse">
<stop stop-color="white"/>
<stop offset="1" stop-color="white"/>
</linearGradient>
</defs>
</svg>
