<svg width="128" height="127" viewBox="0 0 128 127" fill="none" xmlns="http://www.w3.org/2000/svg">
<path fill-rule="evenodd" clip-rule="evenodd" d="M64 111.125C70.2542 111.125 76.4472 109.893 82.2253 107.5C88.0034 105.106 93.2536 101.598 97.676 97.176C102.098 92.7536 105.606 87.5034 108 81.7253C110.393 75.9472 111.625 69.7542 111.625 63.5C111.625 57.2458 110.393 51.0528 108 45.2747C105.606 39.4966 102.098 34.2464 97.676 29.824C93.2536 25.4016 88.0034 21.8936 82.2253 19.5002C76.4472 17.1069 70.2542 15.875 64 15.875C51.3691 15.875 39.2555 20.8926 30.324 29.824C21.3926 38.7555 16.375 50.8691 16.375 63.5C16.375 76.1309 21.3926 88.2445 30.324 97.176C39.2555 106.107 51.3691 111.125 64 111.125ZM62.7723 82.7617L89.2307 51.0117L81.1027 44.2383L58.3485 71.538L46.5745 59.7588L39.0921 67.2412L54.9671 83.1162L59.0629 87.212L62.7723 82.7617Z" fill="#11A770"/>
</svg>
