<svg width="16" height="16" viewBox="0 0 16 16" fill="none" xmlns="http://www.w3.org/2000/svg">
<path d="M9.54679 12.7132C9.54679 13.1198 9.2801 13.6532 8.9401 13.8598L8.00012 14.4665C7.12679 15.0065 5.91345 14.3998 5.91345 13.3198V9.75317C5.91345 9.27984 5.64679 8.67318 5.37345 8.33984L2.81344 5.6465C2.47344 5.3065 2.20679 4.70651 2.20679 4.29985V2.75317C2.20679 1.94651 2.81347 1.33984 3.55347 1.33984H12.4468C13.1868 1.33984 13.7935 1.9465 13.7935 2.6865V4.1665C13.7935 4.7065 13.4535 5.37984 13.1201 5.71318" stroke="#292D32" stroke-miterlimit="10" stroke-linecap="round" stroke-linejoin="round"/>
<path d="M10.7134 11.0132C11.8916 11.0132 12.8468 10.0581 12.8468 8.87992C12.8468 7.70172 11.8916 6.74658 10.7134 6.74658C9.53521 6.74658 8.58008 7.70172 8.58008 8.87992C8.58008 10.0581 9.53521 11.0132 10.7134 11.0132Z" stroke="#292D32" stroke-linecap="round" stroke-linejoin="round"/>
<path d="M13.2467 11.4132L12.5801 10.7466" stroke="#292D32" stroke-linecap="round" stroke-linejoin="round"/>
</svg>
