<svg width="154" height="25" viewBox="0 0 154 25" fill="none" xmlns="http://www.w3.org/2000/svg">
<path d="M7.67899 24.9773C6.38637 24.9773 5.27605 24.8016 4.34802 24.4503C3.41999 24.1056 2.67425 23.6416 2.11081 23.0582C2.0197 22.9639 1.9331 22.8679 1.851 22.7703C1.1882 21.9822 1.78298 20.9144 2.78379 20.6719L3.11549 20.5915C3.73664 20.441 4.37405 20.7564 4.81535 21.2188C5.09376 21.517 5.46829 21.7623 5.93893 21.9545C6.4162 22.1534 7.01611 22.2528 7.73865 22.2528C8.75948 22.2528 9.60465 22.0043 10.2742 21.5071C10.9437 21.0166 11.2784 20.2079 11.2784 19.081V16.2981C11.2784 16.237 11.2289 16.1875 11.1678 16.1875C11.1259 16.1875 11.0877 16.2112 11.0683 16.2483C10.8839 16.6003 10.6225 16.9612 10.2841 17.331C9.93278 17.7221 9.46545 18.0502 8.88211 18.3153C8.30541 18.5805 7.57956 18.7131 6.70456 18.7131C5.53126 18.7131 4.46734 18.438 3.5128 17.8878C2.56488 17.331 1.8092 16.5024 1.24575 15.402C0.688932 14.295 0.410522 12.9096 0.410522 11.2457C0.410522 9.56866 0.688932 8.15341 1.24575 7C1.8092 5.83996 2.56819 4.96165 3.52274 4.36506C4.47728 3.76184 5.5412 3.46023 6.7145 3.46023C7.60939 3.46023 8.34518 3.61269 8.92189 3.91761C9.50522 4.21591 9.96923 4.57718 10.3139 5.00142C10.6374 5.39334 10.8879 5.76483 11.0655 6.11589C11.0866 6.15774 11.1293 6.18466 11.1762 6.18466C11.2436 6.18466 11.2983 6.12997 11.2983 6.06251V4.92188C11.2983 4.22446 11.8637 3.65909 12.5611 3.65909H13.0732C14.0534 3.65909 14.848 4.45372 14.848 5.43395V19.1804C14.848 20.4863 14.5365 21.5668 13.9134 22.4219C13.2903 23.277 12.4385 23.9167 11.358 24.3409C10.2775 24.7652 9.05115 24.9773 7.67899 24.9773ZM7.70882 15.8892C8.47113 15.8892 9.12075 15.7036 9.65768 15.3324C10.1946 14.9612 10.6023 14.4276 10.8807 13.7315C11.1591 13.0355 11.2983 12.2003 11.2983 11.2259C11.2983 10.2647 11.1591 9.42282 10.8807 8.70028C10.6089 7.97775 10.2046 7.41761 9.66762 7.01989C9.13732 6.61553 8.48439 6.41335 7.70882 6.41335C6.90673 6.41335 6.23723 6.62216 5.7003 7.03977C5.16336 7.45739 4.75901 8.03078 4.48723 8.75994C4.21545 9.48248 4.07956 10.3045 4.07956 11.2259C4.07956 12.1605 4.21545 12.9792 4.48723 13.6818C4.76564 14.3778 5.17331 14.9214 5.71024 15.3125C6.2538 15.697 6.91999 15.8892 7.70882 15.8892Z" fill="#1E1E1E"/>
<path d="M20.3367 18.9318C19.3427 18.9318 18.5369 18.1261 18.5369 17.1321V5.40412C18.5369 4.44037 19.3182 3.65909 20.282 3.65909H20.7543C21.4572 3.65909 22.027 4.22891 22.027 4.93182V6.11274C22.027 6.16344 22.0681 6.20455 22.1188 6.20455C22.1589 6.20455 22.1942 6.17849 22.2068 6.14046C22.4879 5.28992 22.9582 4.63184 23.6179 4.16619C24.3007 3.68229 25.0796 3.44034 25.9546 3.44034C26.1534 3.44034 26.3755 3.45028 26.6208 3.47017C26.987 3.48945 27.2472 3.80379 27.2472 4.17057V6.11058C27.2472 6.47268 26.8808 6.75479 26.5213 6.71165C26.1965 6.66525 25.8816 6.64205 25.5767 6.64205C24.9205 6.64205 24.3305 6.78456 23.8068 7.0696C23.2898 7.34801 22.8821 7.7358 22.5838 8.23295C22.2855 8.73011 22.1364 9.3035 22.1364 9.95312V17.1321C22.1364 18.1261 21.3306 18.9318 20.3367 18.9318Z" fill="#1E1E1E"/>
<path d="M35.6715 19.2301C34.1801 19.2301 32.8874 18.902 31.7937 18.2457C30.6999 17.5895 29.8515 16.6714 29.2482 15.4915C28.6516 14.3116 28.3533 12.9328 28.3533 11.3551C28.3533 9.77746 28.6516 8.39536 29.2482 7.20881C29.8515 6.02225 30.6999 5.10085 31.7937 4.4446C32.8874 3.78835 34.1801 3.46023 35.6715 3.46023C37.163 3.46023 38.4556 3.78835 39.5494 4.4446C40.6431 5.10085 41.4883 6.02225 42.0849 7.20881C42.6881 8.39536 42.9897 9.77746 42.9897 11.3551C42.9897 12.9328 42.6881 14.3116 42.0849 15.4915C41.4883 16.6714 40.6431 17.5895 39.5494 18.2457C38.4556 18.902 37.163 19.2301 35.6715 19.2301ZM35.6914 16.3466C36.5001 16.3466 37.1763 16.1245 37.7198 15.6804C38.2634 15.2296 38.6677 14.6264 38.9329 13.8707C39.2047 13.1151 39.3406 12.2732 39.3406 11.3452C39.3406 10.4105 39.2047 9.56534 38.9329 8.80966C38.6677 8.04735 38.2634 7.44081 37.7198 6.99006C37.1763 6.5393 36.5001 6.31392 35.6914 6.31392C34.8628 6.31392 34.1734 6.5393 33.6232 6.99006C33.0797 7.44081 32.672 8.04735 32.4002 8.80966C32.1351 9.56534 32.0025 10.4105 32.0025 11.3452C32.0025 12.2732 32.1351 13.1151 32.4002 13.8707C32.672 14.6264 33.0797 15.2296 33.6232 15.6804C34.1734 16.1245 34.8628 16.3466 35.6914 16.3466Z" fill="#1E1E1E"/>
<path d="M52.7067 19.2301C51.1821 19.2301 49.8729 18.8954 48.7791 18.2259C47.692 17.5563 46.8535 16.6316 46.2635 15.4517C45.6802 14.2652 45.3885 12.8996 45.3885 11.3551C45.3885 9.80398 45.6868 8.43513 46.2834 7.24858C46.88 6.0554 47.7218 5.12737 48.809 4.46449C49.9027 3.79498 51.1953 3.46023 52.6868 3.46023C53.9264 3.46023 55.0234 3.68892 55.978 4.14631C56.9392 4.59706 57.7048 5.23674 58.2749 6.06534C58.4915 6.37776 58.6728 6.71028 58.8186 7.06292C59.2196 8.03281 58.356 8.94886 57.3065 8.94886C56.4379 8.94886 55.7418 8.28344 55.2315 7.58047C55.1096 7.41255 54.9707 7.25552 54.8146 7.10938C54.2976 6.61222 53.6049 6.36364 52.7365 6.36364C52.0007 6.36364 51.3544 6.5625 50.7976 6.96023C50.2408 7.35133 49.8066 7.91477 49.495 8.65057C49.1901 9.38636 49.0377 10.268 49.0377 11.2955C49.0377 12.3362 49.1901 13.2311 49.495 13.9801C49.8 14.7225 50.2275 15.2959 50.7777 15.7003C51.3345 16.098 51.9875 16.2969 52.7365 16.2969C53.2668 16.2969 53.7408 16.1974 54.1584 15.9986C54.5826 15.7931 54.9373 15.4981 55.2223 15.1136C55.2311 15.1018 55.2398 15.0898 55.2485 15.0778C55.7521 14.3758 56.4333 13.7116 57.2972 13.7116C58.3493 13.7116 59.2087 14.632 58.8109 15.6059C58.6707 15.9492 58.4987 16.2756 58.2948 16.5852C57.7446 17.4138 56.9955 18.0634 56.0476 18.5341C55.0997 18.9981 53.986 19.2301 52.7067 19.2301Z" fill="#1E1E1E"/>
<path d="M68.9663 19.2301C67.435 19.2301 66.1126 18.9119 64.9989 18.2756C63.8919 17.6326 63.0401 16.7244 62.4435 15.5511C61.847 14.3712 61.5487 12.9825 61.5487 11.3849C61.5487 9.81392 61.847 8.43513 62.4435 7.24858C63.0468 6.0554 63.8886 5.12737 64.9691 4.46449C66.0496 3.79498 67.319 3.46023 68.7774 3.46023C69.7186 3.46023 70.6069 3.61269 71.4421 3.91761C72.284 4.21591 73.0264 4.67992 73.6694 5.30966C74.319 5.93939 74.8294 6.74148 75.2007 7.71591C75.5719 8.68371 75.7575 9.83712 75.7575 11.1761C75.7575 11.7857 75.2633 12.2798 74.6538 12.2798H64.4521C63.7821 12.2798 63.239 11.7367 63.239 11.0668C63.239 10.3968 63.7821 9.85369 64.4521 9.85369H70.3948C71.448 9.85369 72.3625 8.93967 71.8597 8.0142C71.5681 7.47064 71.1604 7.04309 70.6367 6.73153C70.1197 6.41998 69.5165 6.2642 68.8271 6.2642C68.0913 6.2642 67.445 6.44318 66.8882 6.80114C66.3313 7.15246 65.8971 7.61648 65.5856 8.19318C65.2807 8.76326 65.1249 9.38968 65.1183 10.0724V12.1903C65.1183 13.0786 65.2807 13.8409 65.6055 14.4773C65.9303 15.107 66.3844 15.5909 66.9677 15.929C67.551 16.2604 68.2338 16.4261 69.016 16.4261C69.5397 16.4261 70.0136 16.3532 70.4379 16.2074C70.8621 16.0549 71.23 15.8329 71.5416 15.5412C72.1012 15.0173 72.7829 14.5176 73.5447 14.6032L73.6231 14.612C74.6779 14.7306 75.4097 15.7798 74.8021 16.6502C74.6782 16.8276 74.5426 16.9982 74.3953 17.1619C73.8053 17.8182 73.0496 18.3286 72.1282 18.6932C71.2068 19.0511 70.1528 19.2301 68.9663 19.2301Z" fill="#1E1E1E"/>
<path d="M80.6023 18.9318C79.6083 18.9318 78.8026 18.1261 78.8026 17.1321V5.40412C78.8026 4.44037 79.5838 3.65909 80.5476 3.65909H81.0199C81.7228 3.65909 82.2926 4.22891 82.2926 4.93182V6.11274C82.2926 6.16344 82.3337 6.20455 82.3844 6.20455C82.4245 6.20455 82.4599 6.17849 82.4724 6.14046C82.7535 5.28993 83.2239 4.63184 83.8835 4.16619C84.5663 3.68229 85.3452 3.44034 86.2202 3.44034C86.4191 3.44034 86.6411 3.45028 86.8864 3.47017C87.2526 3.48945 87.5128 3.80379 87.5128 4.17057V6.11058C87.5128 6.47268 87.1465 6.75479 86.7869 6.71165C86.4621 6.66525 86.1473 6.64205 85.8423 6.64205C85.1861 6.64205 84.5961 6.78456 84.0725 7.0696C83.5554 7.34801 83.1477 7.7358 82.8494 8.23295C82.5511 8.73011 82.402 9.3035 82.402 9.95312V17.1321C82.402 18.1261 81.5962 18.9318 80.6023 18.9318Z" fill="#1E1E1E"/>
<path d="M92.6062 24.6591C92.1157 24.6591 91.6616 24.6193 91.244 24.5398C90.6747 24.4388 90.3856 23.8583 90.5506 23.3042L90.6883 22.8422C90.9132 22.087 91.709 21.7087 92.4968 21.696C92.9078 21.6894 93.2691 21.5601 93.5806 21.3082C93.8988 21.063 94.1673 20.652 94.386 20.0753C94.5851 19.5422 94.5898 18.956 94.3994 18.4199L89.9953 6.02197C89.5859 4.86957 90.4405 3.65909 91.6634 3.65909C92.4421 3.65909 93.1294 4.1679 93.3566 4.91267L96.4707 15.1171C96.4845 15.1623 96.5263 15.1932 96.5736 15.1932C96.6208 15.1932 96.6625 15.1623 96.6763 15.1171L99.799 4.91346C100.027 4.1681 100.715 3.65909 101.495 3.65909C102.721 3.65909 103.577 4.87397 103.165 6.02882L97.896 20.7812C97.6109 21.59 97.2331 22.2827 96.7624 22.8594C96.2918 23.4427 95.7151 23.8868 95.0323 24.1918C94.3562 24.5033 93.5475 24.6591 92.6062 24.6591Z" fill="#1E1E1E"/>
<path d="M119.681 3.65909C120.45 3.65909 121.074 4.28233 121.074 5.05114C121.074 5.81994 120.45 6.44318 119.681 6.44318H113.686C112.917 6.44318 112.294 5.81994 112.294 5.05114C112.294 4.28233 112.917 3.65909 113.686 3.65909H119.681ZM114.461 1.79972C114.461 0.805761 115.267 0 116.261 0C117.255 0 118.061 0.805761 118.061 1.79972V14.3381C118.061 14.822 118.134 15.1932 118.279 15.4517C118.432 15.7036 118.631 15.8759 118.876 15.9688C119.121 16.0616 119.393 16.108 119.691 16.108C119.917 16.108 120.122 16.0914 120.308 16.0582C120.547 16.0169 120.788 16.1677 120.84 16.4054L121.172 17.9477C121.275 18.4241 121.002 18.8957 120.527 19.0014C120.175 19.081 119.744 19.1274 119.234 19.1406C118.333 19.1671 117.52 19.0312 116.798 18.733C116.075 18.428 115.502 17.9574 115.078 17.321C114.66 16.6847 114.455 15.8892 114.461 14.9347V1.79972Z" fill="#1E1E1E"/>
<path d="M128.479 19.2401C127.511 19.2401 126.639 19.0677 125.864 18.723C125.095 18.3717 124.485 17.8546 124.034 17.1719C123.59 16.4891 123.368 15.6473 123.368 14.6463C123.368 13.7846 123.527 13.072 123.845 12.5085C124.163 11.9451 124.598 11.4943 125.148 11.1562C125.698 10.8182 126.318 10.563 127.007 10.3906C127.703 10.2116 128.422 10.0824 129.165 10.0028C130.06 9.91004 130.786 9.82718 131.342 9.75426C131.899 9.67472 132.304 9.5554 132.555 9.39631C132.814 9.23059 132.943 8.97538 132.943 8.63068V8.57102C132.943 7.82197 132.721 7.24195 132.277 6.83097C131.833 6.41998 131.193 6.21449 130.358 6.21449C129.476 6.21449 128.777 6.40672 128.26 6.79119C128.174 6.85571 128.093 6.92219 128.017 6.99063C127.403 7.54153 126.635 8.06947 125.818 7.95345C124.785 7.80685 124.096 6.74828 124.709 5.90456C124.852 5.70773 125.008 5.52269 125.178 5.34943C125.787 4.7197 126.533 4.24905 127.415 3.9375C128.296 3.61932 129.271 3.46023 130.338 3.46023C131.074 3.46023 131.806 3.5464 132.536 3.71875C133.265 3.8911 133.931 4.17614 134.534 4.57386C135.137 4.96496 135.621 5.49858 135.986 6.17472C136.357 6.85085 136.543 7.69602 136.543 8.71023V17.2017C136.543 18.1572 135.768 18.9318 134.813 18.9318H134.131C133.552 18.9318 133.082 18.4622 133.082 17.8828V16.9079C133.082 16.867 133.049 16.8338 133.008 16.8338C132.981 16.8338 132.955 16.8493 132.942 16.8738C132.725 17.2831 132.424 17.6675 132.038 18.027C131.647 18.3916 131.153 18.6866 130.557 18.9119C129.967 19.1307 129.274 19.2401 128.479 19.2401ZM129.413 16.5952C130.136 16.5952 130.762 16.4527 131.293 16.1676C131.823 15.8759 132.231 15.4915 132.516 15.0142C132.807 14.5369 132.953 14.0166 132.953 13.4531V12.2892C132.953 12.0356 132.62 11.8407 132.376 11.9119C132.111 11.9915 131.813 12.0611 131.482 12.1207C131.15 12.1804 130.822 12.2334 130.497 12.2798C130.172 12.3262 129.891 12.366 129.652 12.3991C129.115 12.4721 128.634 12.5914 128.21 12.7571C127.786 12.9228 127.451 13.1548 127.206 13.4531C126.961 13.7448 126.838 14.1226 126.838 14.5866C126.838 15.2495 127.08 15.75 127.564 16.0881C128.048 16.4261 128.664 16.5952 129.413 16.5952Z" fill="#1E1E1E"/>
<path d="M146.804 24.9773C145.511 24.9773 144.401 24.8016 143.473 24.4503C142.545 24.1056 141.799 23.6416 141.236 23.0582C141.145 22.9639 141.058 22.8679 140.976 22.7703C140.313 21.9822 140.908 20.9144 141.909 20.6719L142.24 20.5915C142.862 20.441 143.499 20.7564 143.94 21.2188C144.219 21.517 144.593 21.7623 145.064 21.9545C145.541 22.1534 146.141 22.2528 146.864 22.2528C147.884 22.2528 148.73 22.0043 149.399 21.5071C150.069 21.0166 150.403 20.2079 150.403 19.081V16.2981C150.403 16.237 150.354 16.1875 150.293 16.1875C150.251 16.1875 150.213 16.2112 150.193 16.2483C150.009 16.6003 149.748 16.9612 149.409 17.331C149.058 17.7221 148.59 18.0502 148.007 18.3153C147.43 18.5805 146.705 18.7131 145.83 18.7131C144.656 18.7131 143.592 18.438 142.638 17.8878C141.69 17.331 140.934 16.5024 140.371 15.402C139.814 14.295 139.536 12.9096 139.536 11.2457C139.536 9.56866 139.814 8.15341 140.371 7C140.934 5.83996 141.693 4.96165 142.648 4.36506C143.602 3.76184 144.666 3.46023 145.839 3.46023C146.734 3.46023 147.47 3.61269 148.047 3.91761C148.63 4.21591 149.094 4.57718 149.439 5.00142C149.762 5.39334 150.013 5.76483 150.19 6.11588C150.212 6.15774 150.254 6.18466 150.301 6.18466C150.369 6.18466 150.423 6.12997 150.423 6.06251V4.92188C150.423 4.22446 150.989 3.65909 151.686 3.65909H152.198C153.178 3.65909 153.973 4.45372 153.973 5.43395V19.1804C153.973 20.4863 153.661 21.5668 153.038 22.4219C152.415 23.277 151.563 23.9167 150.483 24.3409C149.402 24.7652 148.176 24.9773 146.804 24.9773ZM146.834 15.8892C147.596 15.8892 148.246 15.7036 148.783 15.3324C149.32 14.9612 149.727 14.4276 150.006 13.7315C150.284 13.0355 150.423 12.2003 150.423 11.2259C150.423 10.2647 150.284 9.42282 150.006 8.70028C149.734 7.97775 149.33 7.41761 148.793 7.01989C148.262 6.61553 147.609 6.41335 146.834 6.41335C146.032 6.41335 145.362 6.62216 144.825 7.03977C144.288 7.45739 143.884 8.03078 143.612 8.75994C143.34 9.48248 143.205 10.3045 143.205 11.2259C143.205 12.1605 143.34 12.9792 143.612 13.6818C143.891 14.3778 144.298 14.9214 144.835 15.3125C145.379 15.697 146.045 15.8892 146.834 15.8892Z" fill="#1E1E1E"/>
</svg>
