<svg width="150" height="150" viewBox="0 0 150 150" fill="none" xmlns="http://www.w3.org/2000/svg">
<path d="M149.376 128.342C152.994 121.183 142.654 85.3848 70.9613 85.3848C19.2137 85.3848 -4.53707 114.686 0.713754 129.535" fill="url(#paint0_radial_653_6135)"/>
<mask id="mask0_653_6135" style="mask-type:luminance" maskUnits="userSpaceOnUse" x="0" y="85" width="150" height="45">
<path d="M149.376 128.342C152.994 121.183 142.654 85.3848 70.9613 85.3848C19.2137 85.3848 -4.53707 114.686 0.713754 129.535" fill="white"/>
</mask>
<g mask="url(#mask0_653_6135)">
<ellipse opacity="0.671968" cx="59.9037" cy="116.998" rx="3.94276" ry="2.19001" fill="url(#paint1_linear_653_6135)"/>
<ellipse opacity="0.256348" cx="100.147" cy="102.117" rx="6.22079" ry="3.41641" fill="url(#paint2_linear_653_6135)"/>
<ellipse opacity="0.729957" cx="29.3517" cy="93.0058" rx="6.22079" ry="3.41641" fill="url(#paint3_linear_653_6135)"/>
</g>
<path opacity="0.5" d="M58.4424 93.3236C58.4424 93.3236 73.698 100.497 79.7501 103.25C84.5438 105.431 109.228 112.406 112.169 110.424C115.109 108.441 121.602 102.999 119.459 99.2701C117.315 95.5416 106.042 88.8469 100.651 87.8688C95.2598 86.8906 79.8442 91.3372 79.8442 91.3372L66.6951 93.5953L58.4424 93.3236Z" fill="url(#paint4_linear_653_6135)"/>
<path d="M69.7499 61.25L52.7499 73.75L57.2827 63.1154L74.3076 52.307L69.7499 61.25Z" fill="#E2E7EC"/>
<path d="M57 63.3349L74.3077 52.5V82.0497L58.4423 93.1731L57 63.3349Z" fill="#D8DFE6"/>
<path d="M74.3076 52.5L100.846 58.7087V88.2692L74.3076 82.0605V52.5Z" fill="#E9EFF1"/>
<path d="M57 63.3335L84.1154 69.6703V99.2308L58.4423 93.3355L57 63.3335Z" fill="#E8EAEB"/>
<path d="M83.5381 69.6811L100.846 58.8462V88.3959L83.5381 99.2308V69.6811Z" fill="#D8DFE6"/>
<mask id="mask1_653_6135" style="mask-type:luminance" maskUnits="userSpaceOnUse" x="83" y="58" width="18" height="42">
<path d="M83.5381 69.6811L100.846 58.8462V88.3959L83.5381 99.2308V69.6811Z" fill="white"/>
</mask>
<g mask="url(#mask1_653_6135)">
<rect x="89.9668" y="56.3838" width="5.43956" height="45.3096" fill="#C7D0D9"/>
</g>
<path d="M91.3209 78.4616L108.346 67.6532L100.563 58.8462L83.5381 69.6545L91.3209 78.4616Z" fill="#E2E7EC"/>
<path opacity="0.5" d="M43.7233 94.0685L70.4998 107.75L72.9998 100.5L46.7279 91.761L43.7233 94.0685Z" fill="url(#paint5_linear_653_6135)"/>
<path d="M42.9923 71.5772L52.2254 72.305L50.1751 92.3888C50.1751 92.3888 49.9955 92.5896 49.5599 92.5117C49.1243 92.4338 48.6673 92.1913 48.6673 92.1913L47.294 76.2252C47.294 76.2252 46.4998 81.8709 46.5553 83.4592C46.5971 84.6559 47.0063 86.1158 47.2253 87.3645C47.4137 88.4391 47.8103 91.0074 47.8103 91.0074C47.8103 91.0074 47.3417 91.2214 47.0925 91.2697C46.8433 91.3181 46.5239 91.0524 46.5239 91.0524C46.5239 91.0524 43.2866 84.7683 43.2449 83.5748C43.2033 82.3814 42.9923 71.5772 42.9923 71.5772Z" fill="url(#paint6_linear_653_6135)"/>
<path d="M46.3805 91.023C46.3805 91.023 45.9692 91.7635 45.4584 92.2149C44.9475 92.6664 43.9394 93.2055 43.7096 93.4504C43.4798 93.6954 43.7307 94.0563 43.7307 94.0563L46.2015 93.97L48.1758 92.2998L47.8999 90.7082L46.3805 91.023Z" fill="#677285"/>
<path d="M50.4076 91.8804L50.9844 93.4802C50.9844 93.4802 50.0372 94.2138 48.7284 94.4179C47.4197 94.6221 46.5179 94.3084 46.5179 94.3084C46.5179 94.3084 46.2816 93.8323 46.7269 93.6288C46.9315 93.5354 47.3899 93.1468 47.7924 92.6494C47.9742 92.4248 48.6586 91.9414 48.6586 91.9414L50.4076 91.8804Z" fill="#677285"/>
<path d="M54.5438 61.1063C54.5438 61.1063 55.3006 62.2575 55.7646 61.9495C56.2287 61.6414 59.1256 58.6722 59.1256 58.6722C59.1256 58.6722 59.9873 58.0088 60.1467 58.1665C60.3061 58.3242 59.8593 58.6722 59.8593 58.6722C59.8593 58.6722 60.7996 58.7646 61.0934 58.7646C61.3872 58.7646 62.0052 59.2337 61.6011 59.3916C61.197 59.5494 59.6294 59.5884 59.6294 59.5884C59.6294 59.5884 57.2495 64.089 56.0094 64.4082C54.7692 64.7273 53.0605 62.9224 53.0605 62.9224L54.5438 61.1063Z" fill="#FDE7E6"/>
<path d="M42.4522 61.1888C42.4522 61.1888 41.956 62.2048 41.5063 61.9611C41.0567 61.7173 38.5338 59.0567 38.5338 59.0567C38.5338 59.0567 37.6936 58.5421 37.4881 58.6347C37.2827 58.7273 37.7892 59.0567 37.7892 59.0567C37.7892 59.0567 36.5531 59.157 36.3206 59.2505C36.088 59.3439 35.8172 59.6306 36.1688 59.7609C36.5204 59.8911 37.8662 59.9838 37.8662 59.9838C37.8662 59.9838 39.7371 63.6809 41.1546 64.1132C42.5721 64.5455 43.7797 62.8421 43.7797 62.8421L42.4522 61.1888Z" fill="#FDE7E6"/>
<path d="M47.0413 58.0773V56.2609C47.0413 56.2609 46.0995 56.3086 45.7167 55.678C45.3339 55.0473 45.2305 53.2577 45.2305 53.2577L45.5189 52.428L48.3556 52.3081L49.8459 53.5781L49.152 54.8036L49.0197 55.0391L49.6811 57.8243L47.0413 58.0773Z" fill="#FDE7E6"/>
<mask id="mask2_653_6135" style="mask-type:luminance" maskUnits="userSpaceOnUse" x="45" y="52" width="5" height="7">
<path d="M47.0413 58.0773V56.2609C47.0413 56.2609 46.0995 56.3086 45.7167 55.678C45.3339 55.0473 45.2305 53.2577 45.2305 53.2577L45.5189 52.428L48.3556 52.3081L49.8459 53.5781L49.152 54.8036L49.0197 55.0391L49.6811 57.8243L47.0413 58.0773Z" fill="white"/>
</mask>
<g mask="url(#mask2_653_6135)">
<path d="M48.8867 54.5349C48.0484 55.5776 46.5984 56.3062 46.4097 56.3062C46.2209 56.3062 47.464 57.6139 47.464 57.6139L48.4753 58.0775L49.9108 57.7732L50.4232 56.3062L49.5186 54.6419C49.5186 54.6419 49.7251 53.4923 48.8867 54.5349Z" fill="url(#paint7_linear_653_6135)"/>
</g>
<path d="M41.8496 61.9185L43.2436 63.7961L44.1326 62.8573C44.1326 62.8573 43.4565 66.5646 43.2436 68.3427C43.0307 70.1207 42.9911 71.8917 42.9911 71.8917C42.9911 71.8917 45.2232 72.7204 46.8872 72.8598C48.5511 72.9992 52.4247 72.6403 52.4247 72.6403L51.9247 62.2044L53.3755 63.5513L55.079 61.5843C55.079 61.5843 52.1465 57.0779 51.592 56.8153C51.0375 56.5528 49.4959 56.8153 49.4959 56.8153C49.4959 56.8153 48.402 58.1099 47.9584 58.1279C47.5148 58.146 46.5309 56.8153 46.5309 56.8153C46.5309 56.8153 44.9589 56.5643 44.5018 57.0779C44.0447 57.5915 41.8496 61.9185 41.8496 61.9185Z" fill="url(#paint8_linear_653_6135)"/>
<path d="M45.2309 53.2779C45.2309 53.2779 45.5652 52.4344 46.0016 52.5813C46.4145 52.7204 46.7723 53.0514 47.286 53.2068C47.7998 53.3621 47.8566 52.6642 48.2057 52.782C48.5549 52.8999 48.3244 53.9267 48.5705 54.1179C48.8166 54.3091 48.8166 52.782 49.3412 53.1931C49.8657 53.6042 48.7938 54.7613 48.7938 54.7613C48.7938 54.7613 48.9313 55.4725 48.9753 55.5209C49.0194 55.5693 49.0144 55.0035 49.0144 55.0035C49.0144 55.0035 49.5154 54.8112 49.7289 53.9437C49.9424 53.0763 50.0347 52.731 49.7289 52.1007C49.423 51.4704 49.3359 50.9768 48.5705 50.6795C47.8051 50.3822 47.2244 50.4985 46.6894 50.6795C46.1545 50.8606 45.7668 51.2202 45.5194 51.5782C44.9425 52.4278 45.2309 53.2779 45.2309 53.2779Z" fill="#4D364F"/>
<path fill-rule="evenodd" clip-rule="evenodd" d="M96.808 31.03C96.2001 31.2158 83.6145 38.746 83.6145 38.746L87.2873 39.0198L89.8972 41.9042C89.8972 41.9042 97.4158 30.8442 96.808 31.03Z" fill="#E8EAEB"/>
<mask id="mask3_653_6135" style="mask-type:luminance" maskUnits="userSpaceOnUse" x="83" y="31" width="14" height="11">
<path fill-rule="evenodd" clip-rule="evenodd" d="M96.808 31.03C96.2001 31.2158 83.6145 38.746 83.6145 38.746L87.2873 39.0198L89.8972 41.9042C89.8972 41.9042 97.4158 30.8442 96.808 31.03Z" fill="white"/>
</mask>
<g mask="url(#mask3_653_6135)">
<path fill-rule="evenodd" clip-rule="evenodd" d="M87.2873 39.0199L96.808 31.0301L89.8972 41.9043L87.2873 39.0199Z" fill="#D8DFE6"/>
</g>
<path fill-rule="evenodd" clip-rule="evenodd" d="M94.918 39.7557L90.5046 39.2944L96.8128 31.1077L94.918 39.7557Z" fill="#E8EAEB"/>
<path fill-rule="evenodd" clip-rule="evenodd" d="M86.792 45.21C87.0677 44.6264 87.3454 44.0224 87.6249 43.3979L88.0813 43.6022C87.8003 44.2298 87.5213 44.8369 87.2441 45.4236L86.792 45.21ZM84.9961 48.77C85.3008 48.2078 85.608 47.6189 85.9177 47.0034L86.3644 47.2282C86.0524 47.8481 85.7429 48.4415 85.4357 49.0083L84.9961 48.77ZM84.0161 50.502C83.6608 51.1009 83.3091 51.6622 82.9609 52.1858L83.3773 52.4626C83.7303 51.9317 84.0865 51.3632 84.4461 50.7571L84.0161 50.502ZM80.5215 55.3008C80.9432 54.8634 81.3712 54.3642 81.8054 53.8032L82.2008 54.1093C81.7559 54.684 81.3162 55.1969 80.8814 55.6478L80.5215 55.3008ZM79.0528 56.5928C78.4684 57.0116 77.8992 57.3013 77.3457 57.4632L77.4861 57.9431C78.0968 57.7644 78.716 57.4493 79.3441 56.9992L79.0528 56.5928ZM73.8197 56.6455C74.3696 57.0889 74.9286 57.3793 75.4974 57.5193L75.3779 58.0048C74.7346 57.8464 74.1103 57.5222 73.5059 57.0347L73.8197 56.6455ZM72.4721 55.2253C72.4412 55.1848 72.4102 55.1437 72.3793 55.1021C71.9769 54.5604 71.6845 54.0462 71.498 53.5605L71.0312 53.7397C71.2349 54.2703 71.5496 54.8237 71.978 55.4003C72.0102 55.4437 72.0425 55.4865 72.0748 55.5289L72.4721 55.2253ZM72.3523 50.1956C71.8122 50.6417 71.4649 51.1537 71.3232 51.7249L70.8379 51.6046C71.0069 50.923 71.4153 50.321 72.0339 49.8101L72.3523 50.1956ZM74.0227 49.2561C74.5853 49.0364 75.2179 48.8572 75.9039 48.722L75.8072 48.2314C75.0933 48.3722 74.4323 48.5594 73.8408 48.7904L74.0227 49.2561ZM79.8184 48.436C79.1532 48.4123 78.4903 48.4233 77.8447 48.4687L77.8096 47.97C78.4729 47.9233 79.1534 47.912 79.8362 47.9363L79.8184 48.436ZM81.8086 48.6112C82.4788 48.7066 83.1272 48.8373 83.7396 49.0012L83.8688 48.5182C83.2366 48.3491 82.5687 48.2144 81.8791 48.1162L81.8086 48.6112ZM87.2567 50.6489C86.7995 50.2769 86.2416 49.9429 85.5977 49.6526L85.8031 49.1968C86.4847 49.504 87.0795 49.8601 87.5723 50.2611L87.2567 50.6489ZM88.4482 52.1508C88.5689 52.431 88.646 52.723 88.6786 53.0267C88.713 53.348 88.7249 53.6708 88.7143 53.9955L89.2141 54.0118C89.2254 53.664 89.2126 53.3178 89.1757 52.9734C89.1378 52.6197 89.0478 52.2791 88.9075 51.9531L88.4482 52.1508ZM87.6475 57.7208C87.9692 57.1138 88.2183 56.5132 88.395 55.9189L88.8742 56.0614C88.6879 56.6882 88.4261 57.3194 88.0892 57.955L87.6475 57.7208ZM86.5887 59.3926C86.2188 59.8964 85.8006 60.4042 85.3341 60.9159L85.7036 61.2528C86.1817 60.7283 86.6111 60.2069 86.9917 59.6885L86.5887 59.3926ZM82.4629 63.6212C82.9936 63.1819 83.4906 62.7451 83.9538 62.311L84.2957 62.6759C83.8248 63.1171 83.3202 63.5606 82.7817 64.0064L82.4629 63.6212ZM80.8871 64.8594C80.3732 65.2439 79.834 65.6304 79.2695 66.0188L79.553 66.4307C80.1228 66.0386 80.6673 65.6483 81.1866 65.2597L80.8871 64.8594ZM76.5518 67.7836C76.907 67.5649 77.2544 67.3469 77.5942 67.1294L77.8637 67.5505C77.5215 67.7696 77.1716 67.9892 76.8138 68.2094L76.5518 67.7836Z" fill="#C7D0D9"/>
<defs>
<radialGradient id="paint0_radial_653_6135" cx="0" cy="0" r="1" gradientUnits="userSpaceOnUse" gradientTransform="translate(65.0555 100.696) rotate(-90) scale(25.6701 268.099)">
<stop stop-color="#EBEDF0" stop-opacity="0.24"/>
<stop offset="0.536775" stop-color="#EBEDF0" stop-opacity="0.845525"/>
<stop offset="1" stop-color="#E0E4E7" stop-opacity="0.01"/>
</radialGradient>
<linearGradient id="paint1_linear_653_6135" x1="56.7301" y1="116.417" x2="57.9313" y2="118.986" gradientUnits="userSpaceOnUse">
<stop stop-color="#E1E7EA"/>
<stop offset="1" stop-color="#D0D6DC"/>
</linearGradient>
<linearGradient id="paint2_linear_653_6135" x1="94.9232" y1="101.797" x2="97.1211" y2="106.382" gradientUnits="userSpaceOnUse">
<stop stop-color="#E1E7EA"/>
<stop offset="1" stop-color="#D0D6DC"/>
</linearGradient>
<linearGradient id="paint3_linear_653_6135" x1="25.3851" y1="93.0611" x2="26.6288" y2="98.0158" gradientUnits="userSpaceOnUse">
<stop stop-color="#FBFBFB"/>
<stop offset="1" stop-color="#D9DFE3"/>
</linearGradient>
<linearGradient id="paint4_linear_653_6135" x1="56.2007" y1="95.811" x2="60.6384" y2="115.712" gradientUnits="userSpaceOnUse">
<stop stop-color="#C4CDD1"/>
<stop offset="1" stop-color="#C6CFD3" stop-opacity="0.01"/>
</linearGradient>
<linearGradient id="paint5_linear_653_6135" x1="42.7942" y1="97.8143" x2="47.9421" y2="111.249" gradientUnits="userSpaceOnUse">
<stop stop-color="#C4CDD1"/>
<stop offset="1" stop-color="#C6CFD3" stop-opacity="0.01"/>
</linearGradient>
<linearGradient id="paint6_linear_653_6135" x1="52.8929" y1="92.4255" x2="52.1592" y2="71.416" gradientUnits="userSpaceOnUse">
<stop stop-color="#A1A7B8"/>
<stop offset="1" stop-color="#7B8195"/>
</linearGradient>
<linearGradient id="paint7_linear_653_6135" x1="49.284" y1="56.8579" x2="49.284" y2="55.0979" gradientUnits="userSpaceOnUse">
<stop stop-color="#FBD8D6"/>
<stop offset="1" stop-color="#EAC0BE" stop-opacity="0.7"/>
</linearGradient>
<linearGradient id="paint8_linear_653_6135" x1="35.1571" y1="64.0876" x2="49.066" y2="78.7602" gradientUnits="userSpaceOnUse">
<stop stop-color="#E5E9F0"/>
<stop offset="1" stop-color="#D2DAE8"/>
</linearGradient>
</defs>
</svg>
