<svg width="561" height="456" viewBox="0 0 561 456" fill="none" xmlns="http://www.w3.org/2000/svg">
<g id="No Results">
<g id="circle">
<path id="Stroke 1" d="M20.213 209.402V214.129" stroke="#D2D8DF" stroke-width="1.53409" stroke-linecap="round"/>
<g id="Group 8">
<path id="Stroke 2" d="M9.59583 211.957L13.4583 215.933" stroke="#D2D8DF" stroke-width="1.53409" stroke-linecap="round"/>
<path id="Stroke 4" d="M5.07825 222.539H10.5397" stroke="#D2D8DF" stroke-width="1.53409" stroke-linecap="round"/>
<path id="Stroke 6" d="M9.15051 233.312L13.0129 229.336" stroke="#D2D8DF" stroke-width="1.53409" stroke-linecap="round"/>
</g>
<path id="Stroke 9" d="M20.213 234.613V229.887" stroke="#D2D8DF" stroke-width="1.53409" stroke-linecap="round"/>
<path id="Stroke 10" d="M28.0927 231.456L24.9415 228.305" stroke="#D2D8DF" stroke-width="1.53409" stroke-linecap="round"/>
<path id="Stroke 11" d="M34.3909 223.582H29.6642" stroke="#D2D8DF" stroke-width="1.53409" stroke-linecap="round"/>
<path id="Stroke 12" d="M31.2392 212.549L28.088 215.7" stroke="#D2D8DF" stroke-width="1.53409" stroke-linecap="round"/>
<path id="Stroke 13" d="M273.883 3V6.15116" stroke="#D2D8DF" stroke-width="1.53409" stroke-linecap="round"/>
<path id="Stroke 15" d="M264.426 12.4512H267.577" stroke="#D2D8DF" stroke-width="1.53409" stroke-linecap="round"/>
<path id="Stroke 16" d="M273.883 21.907V18.7559" stroke="#D2D8DF" stroke-width="1.53409" stroke-linecap="round"/>
<path id="Stroke 17" d="M281.763 12.4512H278.611" stroke="#D2D8DF" stroke-width="1.53409" stroke-linecap="round"/>
<path id="Stroke 18" d="M91.1115 135.352V140.078" stroke="#D2D8DF" stroke-width="1.53409" stroke-linecap="round"/>
<path id="Stroke 19" d="M76.9318 149.531H81.6585" stroke="#D2D8DF" stroke-width="1.53409" stroke-linecap="round"/>
<path id="Stroke 20" d="M91.1115 162.133V157.406" stroke="#D2D8DF" stroke-width="1.53409" stroke-linecap="round"/>
<path id="Stroke 21" d="M103.719 149.531H98.9923" stroke="#D2D8DF" stroke-width="1.53409" stroke-linecap="round"/>
<g id="Group 42">
<path id="Stroke 22" d="M430.263 307.154C434.028 307.154 437.082 310.209 437.082 313.975C437.082 317.743 434.028 320.796 430.263 320.796C426.497 320.796 423.443 317.743 423.443 313.975" stroke="#D2D8DF" stroke-width="1.53409" stroke-linecap="round"/>
<path id="Fill 26" fill-rule="evenodd" clip-rule="evenodd" d="M461.471 245.267C465.52 244.004 471.726 239.052 473.163 233.725C474.466 238.434 479.927 244.004 484.855 244.426C479.308 246.39 474.004 252.224 473.163 256.808C472.59 252.136 465.255 245.948 461.471 245.267Z" fill="#EBECEE"/>
<path id="Fill 28" fill-rule="evenodd" clip-rule="evenodd" d="M45.8478 305.05C47.8729 304.418 50.9748 301.943 51.6931 299.279C52.3445 301.633 55.0746 304.418 57.5385 304.63C54.7656 305.61 52.1145 308.529 51.6931 310.82C51.4069 308.484 47.7392 305.39 45.8478 305.05Z" fill="#EBECEE"/>
<path id="Fill 30" fill-rule="evenodd" clip-rule="evenodd" d="M83.4295 85.8729C83.4295 88.795 81.0619 91.1618 78.1419 91.1618C75.2206 91.1618 72.8544 88.795 72.8544 85.8729C72.8544 82.9522 75.2206 80.584 78.1419 80.584C81.0619 80.584 83.4295 82.9522 83.4295 85.8729Z" fill="#D1D8DF"/>
<path id="Fill 32" fill-rule="evenodd" clip-rule="evenodd" d="M436.509 100.076C436.509 104.958 432.551 108.916 427.671 108.916C422.789 108.916 418.832 104.958 418.832 100.076C418.832 95.194 422.789 91.2363 427.671 91.2363C432.551 91.2363 436.509 95.194 436.509 100.076Z" fill="#EBECEE"/>
<path id="Fill 34" fill-rule="evenodd" clip-rule="evenodd" d="M558.922 76.1235C558.922 79.9969 555.784 83.1358 551.913 83.1358C548.04 83.1358 544.902 79.9969 544.902 76.1235C544.902 72.2502 548.04 69.1113 551.913 69.1113C555.784 69.1113 558.922 72.2502 558.922 76.1235Z" fill="#EBECEE"/>
<path id="Stroke 36" fill-rule="evenodd" clip-rule="evenodd" d="M182.25 403.62C182.25 406.062 180.271 408.04 177.83 408.04C175.391 408.04 173.412 406.062 173.412 403.62C173.412 401.178 175.391 399.199 177.83 399.199C180.271 399.199 182.25 401.178 182.25 403.62Z" stroke="#D2D8DF" stroke-width="1.53409" stroke-linecap="round"/>
<path id="Stroke 38" fill-rule="evenodd" clip-rule="evenodd" d="M179.622 51.8944C179.622 54.8165 177.255 57.1833 174.335 57.1833C171.415 57.1833 169.047 54.8165 169.047 51.8944C169.047 48.9736 171.415 46.6055 174.335 46.6055C177.255 46.6055 179.622 48.9736 179.622 51.8944Z" stroke="#D2D8DF" stroke-width="1.53409" stroke-linecap="round"/>
<path id="Stroke 40" fill-rule="evenodd" clip-rule="evenodd" d="M314.493 452.572C311.114 453.858 307.332 452.16 306.047 448.782C304.762 445.402 306.458 441.619 309.838 440.334C313.215 439.048 316.997 440.745 318.282 444.125C319.569 447.504 317.871 451.287 314.493 452.572Z" stroke="#D2D8DF" stroke-width="1.53409" stroke-linecap="round"/>
</g>
</g>
<g id="search">
<g id="documents">
<path id="Fill 1" fill-rule="evenodd" clip-rule="evenodd" d="M312.482 327.569H183.277C174.182 327.569 166.738 320.103 166.738 310.978V126.726C166.738 117.601 174.182 110.139 183.277 110.139H312.482C321.58 110.139 329.024 117.601 329.024 126.726V310.978C329.024 320.103 321.58 327.569 312.482 327.569Z" fill="#E0E2EE"/>
<path id="Fill 3" fill-rule="evenodd" clip-rule="evenodd" d="M301.449 335.45H172.243C163.149 335.45 155.705 327.984 155.705 318.859V134.606C155.705 125.482 163.149 118.02 172.243 118.02H301.449C310.546 118.02 317.99 125.482 317.99 134.606V318.859C317.99 327.984 310.546 335.45 301.449 335.45Z" fill="#E8EBF2"/>
<path id="Fill 5" fill-rule="evenodd" clip-rule="evenodd" d="M290.723 341.669H161.25C152.137 341.669 144.678 334.234 144.678 325.147V141.657C144.678 132.57 152.137 125.139 161.25 125.139H290.723C299.839 125.139 307.299 132.57 307.299 141.657V325.147C307.299 334.234 299.839 341.669 290.723 341.669Z" fill="#D8DBEA"/>
<path id="Fill 8" fill-rule="evenodd" clip-rule="evenodd" d="M290.723 341.669H161.25C152.137 341.669 144.678 334.234 144.678 325.147V141.657C144.678 132.57 152.137 125.139 161.25 125.139H290.723C299.839 125.139 307.299 132.57 307.299 141.657V325.147C307.299 334.234 299.839 341.669 290.723 341.669Z" fill="#F1F2F7"/>
<path id="Fill 11" fill-rule="evenodd" clip-rule="evenodd" d="M272.059 181.039H176.428C173.697 181.039 171.461 178.913 171.461 176.314C171.461 173.713 173.697 171.586 176.428 171.586H272.059C274.79 171.586 277.025 173.713 277.025 176.314C277.025 178.913 274.79 181.039 272.059 181.039Z" fill="#E0E2EE"/>
<path id="Fill 13" fill-rule="evenodd" clip-rule="evenodd" d="M272.059 209.399H176.428C173.697 209.399 171.461 207.272 171.461 204.674C171.461 202.072 173.697 199.945 176.428 199.945H272.059C274.79 199.945 277.025 202.072 277.025 204.674C277.025 207.272 274.79 209.399 272.059 209.399Z" fill="#E0E2EE"/>
<path id="Fill 15" fill-rule="evenodd" clip-rule="evenodd" d="M272.059 237.758H176.428C173.697 237.758 171.461 235.631 171.461 233.033C171.461 230.435 173.697 228.305 176.428 228.305H272.059C274.79 228.305 277.025 230.435 277.025 233.033C277.025 235.631 274.79 237.758 272.059 237.758Z" fill="#E0E2EE"/>
<path id="Fill 17" fill-rule="evenodd" clip-rule="evenodd" d="M272.059 266.123H176.428C173.697 266.123 171.461 263.997 171.461 261.398C171.461 258.797 173.697 256.67 176.428 256.67H272.059C274.79 256.67 277.025 258.797 277.025 261.398C277.025 263.997 274.79 266.123 272.059 266.123Z" fill="#E0E2EE"/>
<path id="Fill 19" fill-rule="evenodd" clip-rule="evenodd" d="M226.346 294.483H176.449C173.706 294.483 171.461 292.356 171.461 289.758C171.461 287.156 173.706 285.029 176.449 285.029H226.346C229.088 285.029 231.333 287.156 231.333 289.758C231.333 292.356 229.088 294.483 226.346 294.483Z" fill="#E0E2EE"/>
</g>
<g id="search_2">
<path id="Fill 21" fill-rule="evenodd" clip-rule="evenodd" d="M327.057 257.825C307.935 276.944 278.331 279.101 256.839 264.34C254.092 262.42 251.478 260.263 249.04 257.825C247.785 256.574 246.602 255.284 245.487 253.924C243.258 251.21 241.305 248.316 239.705 245.325C236.887 240.274 234.97 234.914 233.923 229.373C230.547 211.998 235.595 193.296 249.04 179.857C262.517 166.379 281.222 161.364 298.6 164.707C304.138 165.786 309.503 167.702 314.555 170.488C317.55 172.124 320.405 174.076 323.124 176.305C324.479 177.416 325.77 178.603 327.021 179.857C329.463 182.295 331.653 184.905 333.537 187.655C348.305 209.139 346.144 238.742 327.057 257.825Z" fill="white" fill-opacity="0.1"/>
<path id="Fill 23" fill-rule="evenodd" clip-rule="evenodd" d="M321.705 254.059C301.811 273.957 269.57 273.953 249.672 254.059C229.8 234.187 229.8 201.943 249.698 182.049C269.57 162.177 301.811 162.177 321.683 182.049C341.577 201.943 341.577 234.187 321.705 254.059ZM331.918 171.83C306.382 146.294 265.001 146.294 239.465 171.83C213.933 197.362 213.911 238.768 239.443 264.304C262.684 287.538 299.111 289.633 324.732 270.557C327.235 268.691 329.645 266.599 331.944 264.304C334.239 262.005 336.33 259.595 338.192 257.093C357.269 231.468 355.155 195.067 331.918 171.83Z" fill="#E0E2EE"/>
<path id="Fill 25" fill-rule="evenodd" clip-rule="evenodd" d="M432.411 360.565L431.339 361.637C424.246 368.734 412.632 368.734 405.536 361.637L340.047 296.149L366.922 269.273L432.411 334.762C439.507 341.858 439.507 353.469 432.411 360.565Z" fill="url(#paint0_linear_653_12684)"/>
<path id="Fill 27" fill-rule="evenodd" clip-rule="evenodd" d="M339.602 255.094L358.955 274.446L345.216 288.181L325.867 268.829C328.421 266.925 330.876 264.791 333.226 262.449C335.568 260.107 337.702 257.647 339.602 255.094Z" fill="#E0E2EE"/>
<path id="Fill 29" fill-rule="evenodd" clip-rule="evenodd" d="M431.436 333.956L404.731 360.656L399.924 355.845L426.624 329.145L431.436 333.956Z" fill="#54EFB7"/>
<path id="Fill 31" fill-rule="evenodd" clip-rule="evenodd" d="M368.412 270.197L340.977 297.633L336.901 293.557L364.336 266.121L368.412 270.197Z" fill="url(#paint1_linear_653_12684)"/>
<path id="Fill 33" fill-rule="evenodd" clip-rule="evenodd" d="M308.538 175.207L241.255 242.487C238.721 237.945 236.998 233.126 236.061 228.145L294.196 170.01C299.173 170.983 303.996 172.702 308.538 175.207Z" fill="white" fill-opacity="0.5"/>
<path id="Fill 35" fill-rule="evenodd" clip-rule="evenodd" d="M330.594 191.203L257.854 259.822C255.249 258.107 252.769 256.177 250.457 253.996C249.267 252.873 248.141 251.721 247.088 250.505L320.714 181.043C322.003 182.04 323.228 183.102 324.414 184.225C326.727 186.406 328.807 188.742 330.594 191.203Z" fill="white" fill-opacity="0.5"/>
</g>
</g>
</g>
<defs>
<linearGradient id="paint0_linear_653_12684" x1="388.89" y1="220.43" x2="291.204" y2="318.117" gradientUnits="userSpaceOnUse">
<stop offset="0.42" stop-color="#60FFC5"/>
<stop offset="1" stop-color="#00613D"/>
</linearGradient>
<linearGradient id="paint1_linear_653_12684" x1="352.656" y1="250.365" x2="321.145" y2="281.877" gradientUnits="userSpaceOnUse">
<stop stop-color="#40FFB9"/>
<stop offset="1" stop-color="#00D688"/>
</linearGradient>
</defs>
</svg>
