<svg width="146" height="197" viewBox="0 0 146 197" fill="none" xmlns="http://www.w3.org/2000/svg">
<rect x="55.7106" y="68.5437" width="46" height="46" rx="23" transform="rotate(-6.03114 55.7106 68.5437)" stroke="#1E1E1E" stroke-width="2"/>
<path d="M74.6227 89.7515C76.4264 88.1035 78.5554 87.1126 80.8026 86.8752C83.0499 86.6378 85.3389 87.1619 87.4472 88.3966M71.76 85.021C74.2131 82.7522 77.1179 81.3868 80.1867 81.06C83.2556 80.7332 86.3821 81.4564 89.2566 83.1579M68.9069 80.2749C72.0147 77.4084 75.6925 75.6848 79.577 75.2744C83.4615 74.864 87.4183 75.781 91.0564 77.9347" stroke="#191919" stroke-width="2.76923" stroke-linecap="round" stroke-linejoin="round"/>
<path d="M77.6688 95.1083L78.5056 103.029L76.7111 103.219L73.4094 99.3596L73.363 99.3645L73.8026 103.526L71.6523 103.753L70.8154 95.8324L72.6409 95.6395L75.8946 99.4881L75.9564 99.4816L75.5184 95.3355L77.6688 95.1083Z" fill="#1E1E1E"/>
<path d="M79.5228 102.922L78.6859 95.0009L84.2553 94.4124L84.4383 96.1451L81.0194 96.5063L81.1632 97.8677L84.2418 97.5425L84.4249 99.2752L81.3463 99.6004L81.6732 102.694L79.5228 102.922Z" fill="#1E1E1E"/>
<path d="M92.7549 96.5179L90.5735 96.7484C90.539 96.5695 90.4805 96.4101 90.3979 96.2703C90.3179 96.1301 90.2143 96.0133 90.0871 95.9198C89.9622 95.8235 89.8156 95.7556 89.6471 95.716C89.4784 95.6739 89.2909 95.6637 89.0847 95.6855C88.7237 95.7236 88.4274 95.8436 88.1958 96.0453C87.9668 96.2468 87.8052 96.5181 87.7108 96.8592C87.6191 97.2 87.5975 97.5999 87.646 98.0588C87.6972 98.5436 87.8045 98.9429 87.9681 99.2567C88.1339 99.5677 88.3493 99.7926 88.6142 99.9315C88.8789 100.068 89.1853 100.118 89.5334 100.081C89.7319 100.06 89.9072 100.016 90.0594 99.9509C90.2112 99.8827 90.3401 99.7947 90.446 99.6871C90.552 99.5794 90.634 99.4547 90.692 99.313C90.7523 99.1685 90.7864 99.0098 90.7942 98.8369L92.9772 98.6219C92.9868 98.9598 92.9288 99.3114 92.8031 99.6766C92.6772 100.039 92.4802 100.383 92.2122 100.709C91.9464 101.032 91.6038 101.305 91.1843 101.529C90.7647 101.753 90.2649 101.896 89.6848 101.958C88.9576 102.034 88.2888 101.947 87.6783 101.696C87.0704 101.445 86.5668 101.034 86.1676 100.464C85.7709 99.8929 85.5263 99.1692 85.4337 98.2926C85.3405 97.4107 85.4322 96.6502 85.7088 96.0109C85.9852 95.369 86.3958 94.8628 86.9407 94.4924C87.4853 94.1194 88.1134 93.8953 88.825 93.8201C89.3252 93.7673 89.7927 93.787 90.2274 93.8792C90.6621 93.9715 91.0519 94.1324 91.3969 94.3618C91.7415 94.5888 92.0307 94.8828 92.2644 95.244C92.4981 95.6051 92.6616 96.0298 92.7549 96.5179Z" fill="#1E1E1E"/>
<path d="M28.9936 106.332C20.5639 23.1976 8.59225 20.8396 68.7413 16.4573C82.1195 15.4821 87.865 13.781 102.689 14.0234C125.35 14.3947 124.338 14.4597 128.89 55.6258C130.827 73.1283 134.406 109.141 136.985 126.866C142.009 161.401 142.201 174.797 131.267 180.201C118.214 186.651 105.165 187.687 90.1266 189.241C70.1508 191.31 66.5024 192.492 54.2214 190.058C46.0863 188.445 39.2326 184.1 37.7157 175.863C34.9371 160.77 31.199 128.103 28.9936 106.332ZM130.364 91.858C127.692 68.7381 124.097 29.2002 121.345 22.7514C118.647 16.4277 113.624 16.2376 75.4245 19.237C34.1697 22.4756 24.4764 22.7889 24.7659 40.0599C25.0457 56.7064 36.8588 159.387 40.2708 175.685C43.7183 192.141 71.65 188.112 88.3871 186.541C105.909 184.897 119.486 183.452 131.225 177.246C142.333 171.371 136.795 147.511 130.364 91.858Z" fill="#191919"/>
<path d="M104.454 141.52C109.63 141.237 112.123 139.918 113.001 143.435C113.517 145.503 114.428 151.347 114.242 153.205C113.824 157.38 109.066 159.003 63.2301 161.654C58.9168 161.903 59.3709 152.625 59.359 149.895C59.3384 144.854 65.2227 147.253 104.454 141.52ZM96.6886 147.279C96.1773 145.264 69.7262 148.87 64.8603 149.742C64.3599 149.831 63.6625 149.884 63.7127 150.505C63.763 151.126 64.485 151.023 64.9716 151.106C67.2568 151.486 94.9737 148.122 96.6886 147.279Z" fill="#11A770"/>
<path d="M123.039 83.5804C131.729 163.615 131.6 163.616 130.459 163.736C128.991 163.89 113.77 13.1056 117.19 28.7848C117.428 29.8792 123.741 83.5055 123.039 83.5804Z" fill="#191919"/>
<path d="M77.8811 35.2819C47.5431 37.6065 68.4645 25.0595 40.1625 31.7605C34.745 33.041 34.6741 33.3069 34.4633 32.7662C34.0841 31.7969 39.6395 30.5007 41.3583 30.0683C66.8285 23.6658 49.5663 35.7399 76.8262 33.3582C99.4152 31.3882 89.6726 25.8899 97.9879 24.6488C99.4201 24.435 113.232 22.865 113.223 24.2893C113.217 25.3097 102.848 25.5954 98.4302 26.5823C91.1077 28.2174 97.8451 33.7531 77.8811 35.2819Z" fill="#191919"/>
<path d="M127.158 169.371C89.2058 186.484 50.385 178.747 51.3808 175.94C51.894 174.491 54.6215 178.895 78.2418 178.093C111.099 176.981 126.649 167.497 127.158 169.371Z" fill="#191919"/>
<path d="M73.0892 28.2724C71.001 28.4881 70.7006 25.0288 72.7602 24.754C75.0228 24.4506 75.2424 28.0498 73.0892 28.2724Z" fill="#191919"/>
<path d="M80.1515 25.4788C80.1643 25.743 80.0747 26.0018 79.8994 26.2005C79.725 26.3991 79.4798 26.5217 79.2158 26.5422C78.9528 26.5627 78.6908 26.4795 78.4879 26.3104C78.284 26.1412 78.1549 25.8994 78.1274 25.6364C78.1126 25.5014 78.1264 25.3649 78.1658 25.2351C78.2052 25.1052 78.2702 24.9845 78.3569 24.8802C78.4436 24.7759 78.5499 24.69 78.6711 24.6276C78.7913 24.5653 78.9232 24.5278 79.0582 24.5172C79.1941 24.5067 79.33 24.5234 79.4581 24.5664C79.5871 24.6092 79.7063 24.6776 79.8078 24.7672C79.9102 24.8569 79.993 24.966 80.0521 25.0882C80.1112 25.2105 80.1446 25.3432 80.1515 25.4788Z" fill="#191919"/>
<path d="M48.542 172.266C48.5863 172.692 48.7774 173.263 48.1056 173.321C47.4339 173.379 47.5462 172.765 47.4989 172.353C38.6831 95.6441 32.9534 39.5208 32.9534 39.5208C32.7042 35.9127 33.5247 35.567 34.0832 39.3238C35.7311 50.4051 40.3941 94.2898 48.542 172.266Z" fill="#191919"/>
<path d="M112.972 69.3165C112.736 69.3519 112.495 69.2921 112.303 69.1503C112.11 69.0086 111.981 68.7963 111.944 68.56C110.576 55.888 110.908 55.7314 109.62 55.8713C99.2091 57.003 98.6979 57.3773 98.5708 56.2032C98.555 55.9641 98.6358 55.7288 98.7934 55.5489C98.952 55.369 99.1746 55.2592 99.414 55.2438C111.645 53.921 112.204 53.5151 112.333 54.708C113.857 68.756 114.295 69.1727 112.972 69.3165Z" fill="#11A770"/>
<path d="M52.4147 110.102C52.6511 110.067 52.8924 110.126 53.0845 110.268C53.2775 110.41 53.4056 110.622 53.442 110.859C54.8102 123.53 54.4792 123.687 55.7666 123.548C66.1771 122.416 66.6883 122.042 66.8154 123.216C66.8311 123.455 66.7504 123.689 66.5928 123.87C66.4352 124.05 66.2126 124.159 65.9732 124.175C53.7415 125.498 53.182 125.903 53.053 124.711C51.5302 110.667 51.0869 110.246 52.4147 110.102Z" fill="#11A770"/>
<path d="M48.5264 76.4071C48.7651 76.3912 48.9877 76.2815 49.1459 76.1019C49.3035 75.9223 49.3842 75.6875 49.3695 75.4487C48.0004 62.7777 47.6271 62.6959 48.9155 62.5551C59.3258 61.4243 59.904 61.6814 59.777 60.5092C59.7405 60.2728 59.6125 60.0604 59.4194 59.9186C59.2273 59.7768 58.986 59.7171 58.7496 59.7528C46.515 61.0786 45.8836 60.8097 46.0127 62.0074C47.5335 76.0496 47.2006 76.55 48.5264 76.4071Z" fill="#11A770"/>
<path d="M116.425 103.246C116.187 103.262 115.963 103.371 115.806 103.552C115.648 103.731 115.567 103.966 115.582 104.205C116.95 116.876 117.324 116.958 116.035 117.098C105.625 118.229 105.047 117.972 105.174 119.144C105.21 119.381 105.338 119.593 105.53 119.735C105.723 119.877 105.965 119.937 106.201 119.901C118.432 118.575 119.063 118.844 118.934 117.65C117.413 103.604 117.746 103.103 116.425 103.246Z" fill="#11A770"/>
</svg>
