<svg width="146" height="197" viewBox="0 0 146 197" fill="none" xmlns="http://www.w3.org/2000/svg">
<path d="M29.2699 106.397C20.8403 23.2631 8.86862 20.905 69.0176 16.5227C82.3959 15.5476 88.1414 13.8465 102.966 14.0888C125.627 14.4601 124.614 14.5251 129.167 55.6912C131.103 73.1937 134.683 109.206 137.261 126.931C142.285 161.466 142.477 174.862 131.543 180.266C118.49 186.717 105.441 187.752 90.403 189.306C70.4272 191.375 66.7787 192.557 54.4978 190.123C46.3626 188.511 39.509 184.166 37.9921 175.928C35.2134 160.835 31.4754 128.169 29.2699 106.397ZM130.64 91.9235C127.968 68.8036 124.374 29.2657 121.622 22.8169C118.924 16.4932 113.9 16.3031 75.7009 19.3024C34.4461 22.5411 24.7527 22.8543 25.0423 40.1253C25.3221 56.7718 37.1352 159.452 40.5472 175.751C43.9947 192.206 71.9263 188.178 88.6635 186.607C106.186 184.963 119.763 183.518 131.501 177.311C142.609 171.437 137.071 147.576 130.64 91.9235Z" fill="#191919"/>
<path d="M104.731 141.585C109.907 141.303 112.399 139.984 113.278 143.5C113.794 145.569 114.705 151.413 114.519 153.27C114.1 157.446 109.342 159.068 63.5065 161.72C59.1931 161.969 59.6472 152.69 59.6354 149.961C59.6147 144.92 65.4991 147.318 104.731 141.585ZM96.9649 147.345C96.4537 145.329 70.0025 148.935 65.1366 149.807C64.6362 149.897 63.9389 149.95 63.9891 150.57C64.0393 151.191 64.7613 151.089 65.2479 151.171C67.5331 151.552 95.25 148.188 96.9649 147.345Z" fill="#11A770"/>
<path d="M123.315 83.6458C132.006 163.681 131.876 163.682 130.736 163.801C129.267 163.956 114.046 13.171 117.466 28.8503C117.704 29.9446 124.017 83.5709 123.315 83.6458Z" fill="#191919"/>
<path d="M78.1575 35.3473C47.8195 37.6719 68.7409 25.125 40.4389 31.8259C35.0214 33.1064 34.9505 33.3724 34.7397 32.8316C34.3605 31.8624 39.9159 30.5661 41.6347 30.1337C67.1048 23.7312 49.8427 35.8053 77.1026 33.4236C99.6916 31.4536 89.9489 25.9553 98.2643 24.7142C99.6965 24.5005 113.508 22.9304 113.499 24.3547C113.493 25.3752 103.124 25.6608 98.7066 26.6478C91.3841 28.2829 98.1215 33.8186 78.1575 35.3473Z" fill="#191919"/>
<path d="M127.434 169.436C89.4822 186.55 50.6614 178.812 51.6572 176.005C52.1704 174.556 54.8978 178.96 78.5181 178.158C111.376 177.046 126.925 167.563 127.434 169.436Z" fill="#191919"/>
<path d="M73.3656 28.3378C71.2774 28.5535 70.977 25.0942 73.0366 24.8194C75.2991 24.516 75.5188 28.1152 73.3656 28.3378Z" fill="#191919"/>
<path d="M80.4279 25.5442C80.4407 25.8084 80.3511 26.0672 80.1757 26.2659C80.0014 26.4645 79.7561 26.5871 79.4922 26.6076C79.2292 26.6281 78.9672 26.545 78.7642 26.3758C78.5603 26.2066 78.4313 25.9648 78.4037 25.7018C78.389 25.5669 78.4027 25.4303 78.4421 25.3005C78.4815 25.1706 78.5466 25.0499 78.6332 24.9456C78.7199 24.8413 78.8263 24.7554 78.9475 24.6931C79.0676 24.6307 79.1996 24.5932 79.3346 24.5827C79.4705 24.5721 79.6064 24.5889 79.7345 24.6318C79.8635 24.6747 79.9827 24.743 80.0841 24.8326C80.1866 24.9223 80.2693 25.0314 80.3284 25.1537C80.3875 25.2759 80.421 25.4087 80.4279 25.5442Z" fill="#191919"/>
<path d="M48.8184 172.332C48.8627 172.757 49.0538 173.329 48.382 173.387C47.7102 173.445 47.8225 172.83 47.7753 172.419C38.9595 95.7096 33.2298 39.5862 33.2298 39.5862C32.9805 35.9782 33.8011 35.6324 34.3596 39.3892C36.0075 50.4705 40.6704 94.3552 48.8184 172.332Z" fill="#191919"/>
<path d="M65.3573 61.1523L50.7793 62.7333L52.3189 76.9173L66.8969 75.3354L65.3573 61.1523ZM53.9057 74.9591L52.7513 64.3211L63.7774 63.1243L64.9328 73.7623L53.9057 74.9591Z" fill="#191919"/>
<path d="M85.0278 107.409L81.2385 107.82L81.6434 111.548L85.4327 111.136L85.0278 107.409Z" fill="#191919"/>
<path d="M79.9797 59.5322L76.1904 59.9438L76.5963 63.6717L80.3846 63.2603L79.9797 59.5322Z" fill="#191919"/>
<path d="M105.158 71.1825L103.619 56.9985L89.0466 58.5785L90.5852 72.7625L105.158 71.1825ZM102.037 58.9626L103.191 69.6006L92.1651 70.7974L91.0107 60.1594L102.037 58.9626Z" fill="#191919"/>
<path d="M98.7261 62.8779L94.9368 63.2892L95.3416 67.0172L99.1309 66.6059L98.7261 62.8779Z" fill="#191919"/>
<path d="M61.5 66.9194L57.7117 67.3308L58.1165 71.0588L61.9048 70.6475L61.5 66.9194Z" fill="#191919"/>
<path d="M54.8445 100.107L56.384 114.291L70.9561 112.709L69.4176 98.5254L54.8445 100.107ZM57.963 112.327L56.8086 101.689L67.8406 100.492L68.995 111.13L57.963 112.327Z" fill="#191919"/>
<path d="M65.5583 104.294L61.769 104.706L62.1739 108.433L65.9632 108.023L65.5583 104.294Z" fill="#191919"/>
<path d="M69.7682 86.1558L63.6129 86.8246L63.807 88.5956L68.1892 88.1218L68.6473 92.3307L54.021 93.9195L54.215 95.6915L70.6114 93.9126L69.7682 86.1558Z" fill="#191919"/>
<path d="M107.994 97.318L94.9005 98.7422L94.4208 94.3147L107.568 92.8874L105.719 75.8745L97.495 76.7659L98.5046 86.0624L93.878 86.5647L92.8674 77.2643L87.843 77.8406L88.0468 79.6136L91.2885 79.2403L92.2961 88.5288L100.469 87.6443L99.4591 78.3478L104.14 77.8386L105.603 91.3075L92.4537 92.7357L93.1265 98.9343L87.5642 99.5381L88.7501 110.919L90.5231 110.735L89.5224 101.118L98.9341 100.097L99.2877 103.358L103.076 102.946L102.722 99.6858L106.415 99.2849L107.249 106.977L96.2243 108.174L95.8638 104.857L94.0908 105.048L94.6434 110.138L109.215 108.557L107.994 97.318Z" fill="#191919"/>
<path d="M57.9629 89.3174L59.7369 89.1243L59.0474 82.772L64.85 82.1426L64.657 80.3696L52.6902 81.6679L52.8832 83.4418L57.2744 82.9651L57.9629 89.3174Z" fill="#191919"/>
<path d="M87.6449 84.2152L81.4414 84.8889L80.9489 80.3559L84.5619 79.9649L84.3678 78.1919L78.9848 78.777L79.9944 88.0734L73.6638 88.76L74.8645 99.8273L76.6375 99.6333L76.2977 96.4971L80.6888 96.0184L81.5054 103.551L75.3403 104.22L76.2169 112.285L77.9899 112.091L77.3073 105.799L83.4715 105.133L82.2678 94.0543L76.1037 94.7241L75.6279 90.3399L81.9585 89.6524L81.6334 86.6619L86.063 86.1802L87.1327 96.0283L88.9057 95.8362L87.6449 84.2152Z" fill="#191919"/>
<path d="M73.2431 68.3772L77.7407 67.932L78.4105 74.0873L86.125 73.249L85.9339 71.476L79.9904 72.1212L79.5097 67.6877L85.7763 67.0041L85.2326 62.019L83.4606 62.2131L83.8092 65.4252L73.0491 66.5944L72.7004 63.3803L70.9274 63.5744L72.6581 79.5087L68.9988 79.9066L69.1928 81.6796L72.8521 81.2817L73.2786 85.2168L75.0516 85.0227L73.2431 68.3772Z" fill="#191919"/>
<path d="M110.856 65.6217C110.619 65.657 110.378 65.5973 110.186 65.4555C109.993 65.3138 109.864 65.1015 109.827 64.8652C108.459 52.1932 108.791 52.0366 107.503 52.1764C97.0921 53.3082 96.5809 53.6825 96.4538 52.5084C96.4381 52.2693 96.5189 52.034 96.6765 51.854C96.835 51.6742 97.0577 51.5644 97.297 51.549C109.528 50.2261 110.087 49.8203 110.216 51.0131C111.74 65.0612 112.178 65.4779 110.856 65.6217Z" fill="#11A770"/>
<path d="M50.2977 106.408C50.5341 106.372 50.7755 106.431 50.9675 106.573C51.1606 106.715 51.2886 106.928 51.3251 107.164C52.6933 119.835 52.3623 119.993 53.6497 119.853C64.0602 118.721 64.5714 118.347 64.6984 119.521C64.7142 119.76 64.6334 119.995 64.4758 120.175C64.3182 120.355 64.0956 120.464 63.8563 120.48C51.6245 121.803 51.0651 122.208 50.936 121.016C49.4132 106.972 48.97 106.551 50.2977 106.408Z" fill="#11A770"/>
<path d="M46.409 72.7123C46.6476 72.6964 46.8702 72.5866 47.0284 72.4071C47.186 72.2275 47.2668 71.9927 47.252 71.7539C45.883 59.0829 45.5097 59.0011 46.798 58.8603C57.2084 57.7295 57.7866 57.9866 57.6595 56.8144C57.6231 56.578 57.495 56.3656 57.302 56.2238C57.1099 56.082 56.8686 56.0223 56.6322 56.0579C44.3976 57.3838 43.7662 57.1148 43.8952 58.3126C45.4161 72.3548 45.0832 72.8551 46.409 72.7123Z" fill="#11A770"/>
<path d="M114.308 99.5515C114.07 99.5673 113.846 99.6766 113.688 99.8568C113.531 100.036 113.45 100.272 113.465 100.51C114.833 113.181 115.206 113.264 113.918 113.404C103.507 114.534 102.929 114.277 103.056 115.449C103.093 115.686 103.221 115.899 103.413 116.04C103.606 116.182 103.847 116.242 104.084 116.206C116.314 114.88 116.946 115.149 116.817 113.955C115.296 99.909 115.629 99.4077 114.308 99.5515Z" fill="#11A770"/>
</svg>
