<svg width="25" height="24" viewBox="0 0 25 24" fill="none" xmlns="http://www.w3.org/2000/svg">
<path d="M12.7417 7.50126C11.8517 7.50126 10.9817 7.76518 10.2417 8.25965C9.50166 8.75412 8.92488 9.45692 8.58429 10.2792C8.24369 11.1015 8.15458 12.0063 8.32821 12.8792C8.50184 13.7521 8.93043 14.5539 9.55976 15.1832C10.1891 15.8126 10.9909 16.2412 11.8638 16.4148C12.7368 16.5884 13.6416 16.4993 14.4638 16.1587C15.2861 15.8181 15.9889 15.2414 16.4834 14.5013C16.9778 13.7613 17.2417 12.8913 17.2417 12.0013C17.2405 10.8082 16.766 9.6643 15.9224 8.82065C15.0787 7.97701 13.9348 7.5025 12.7417 7.50126ZM12.7417 15.0013C12.1484 15.0013 11.5684 14.8253 11.075 14.4957C10.5817 14.166 10.1972 13.6975 9.9701 13.1493C9.74304 12.6011 9.68363 11.9979 9.79939 11.416C9.91514 10.834 10.2009 10.2995 10.6204 9.87994C11.04 9.46038 11.5745 9.17466 12.1565 9.05891C12.7384 8.94315 13.3416 9.00256 13.8898 9.22962C14.438 9.45669 14.9065 9.84121 15.2362 10.3346C15.5658 10.8279 15.7417 11.4079 15.7417 12.0013C15.7417 12.7969 15.4257 13.56 14.8631 14.1226C14.3005 14.6852 13.5374 15.0013 12.7417 15.0013ZM20.9917 12.2038C20.9955 12.0688 20.9955 11.9338 20.9917 11.7988L22.3905 10.0513C22.4638 9.95951 22.5146 9.85182 22.5387 9.73685C22.5628 9.62189 22.5596 9.50287 22.5292 9.38939C22.2999 8.52745 21.9569 7.69987 21.5092 6.92845C21.4506 6.8275 21.3693 6.74162 21.2716 6.67766C21.1739 6.6137 21.0627 6.57341 20.9467 6.56001L18.723 6.31251C18.6305 6.21501 18.5367 6.12126 18.4417 6.03126L18.1792 3.80189C18.1657 3.68584 18.1253 3.57455 18.0612 3.47689C17.9971 3.37923 17.911 3.2979 17.8099 3.23939C17.0382 2.79253 16.2106 2.44986 15.3489 2.22033C15.2354 2.19014 15.1163 2.18705 15.0014 2.21131C14.8864 2.23557 14.7787 2.28651 14.6871 2.36001L12.9442 3.75126C12.8092 3.75126 12.6742 3.75126 12.5392 3.75126L10.7917 2.35533C10.7 2.28198 10.5923 2.23122 10.4773 2.20712C10.3624 2.18302 10.2434 2.18626 10.1299 2.21658C9.26807 2.44629 8.44054 2.78928 7.66893 3.23658C7.56798 3.29519 7.4821 3.37657 7.41814 3.47422C7.35418 3.57187 7.31389 3.68311 7.30049 3.79908L7.05299 6.02658C6.95549 6.1197 6.86174 6.21345 6.77174 6.30783L4.54237 6.56376C4.42632 6.57726 4.31502 6.61769 4.21736 6.68182C4.1197 6.74595 4.03838 6.83201 3.97987 6.93314C3.533 7.70485 3.19034 8.53236 2.9608 9.39408C2.93061 9.50763 2.92753 9.62669 2.95179 9.74166C2.97605 9.85662 3.02699 9.96428 3.10049 10.056L4.49174 11.7988C4.49174 11.9338 4.49174 12.0688 4.49174 12.2038L3.0958 13.9513C3.02246 14.043 2.9717 14.1507 2.9476 14.2657C2.9235 14.3806 2.92674 14.4997 2.95705 14.6131C3.18636 15.4751 3.52937 16.3027 3.97705 17.0741C4.03567 17.175 4.11705 17.2609 4.2147 17.3249C4.31235 17.3888 4.42359 17.4291 4.53955 17.4425L6.76331 17.69C6.85643 17.7875 6.95018 17.8813 7.04456 17.9713L7.30424 20.2006C7.31774 20.3167 7.35817 20.428 7.4223 20.5256C7.48643 20.6233 7.57249 20.7046 7.67362 20.7631C8.44533 21.21 9.27284 21.5527 10.1346 21.7822C10.2481 21.8124 10.3672 21.8155 10.4821 21.7912C10.5971 21.767 10.7048 21.716 10.7964 21.6425L12.5392 20.2513C12.6742 20.255 12.8092 20.255 12.9442 20.2513L14.6917 21.65C14.7835 21.7234 14.8912 21.7741 15.0062 21.7982C15.1211 21.8223 15.2401 21.8191 15.3536 21.7888C16.2156 21.5595 17.0431 21.2164 17.8146 20.7688C17.9155 20.7101 18.0014 20.6288 18.0653 20.5311C18.1293 20.4335 18.1696 20.3222 18.183 20.2063L18.4305 17.9825C18.528 17.89 18.6217 17.7963 18.7117 17.7013L20.9411 17.4388C21.0572 17.4253 21.1685 17.3848 21.2661 17.3207C21.3638 17.2566 21.4451 17.1705 21.5036 17.0694C21.9505 16.2977 22.2931 15.4702 22.5227 14.6084C22.5529 14.4949 22.556 14.3758 22.5317 14.2609C22.5074 14.1459 22.4565 14.0382 22.383 13.9466L20.9917 12.2038ZM19.4824 11.5944C19.4983 11.8654 19.4983 12.1371 19.4824 12.4081C19.4712 12.5937 19.5293 12.7768 19.6455 12.9219L20.9758 14.5841C20.8232 15.0692 20.6277 15.5398 20.3917 15.9903L18.273 16.2303C18.0885 16.2508 17.9181 16.339 17.7949 16.4778C17.6144 16.6808 17.4222 16.873 17.2192 17.0534C17.0804 17.1767 16.9922 17.3471 16.9717 17.5316L16.7364 19.6485C16.286 19.8845 15.8153 20.08 15.3302 20.2325L13.6671 18.9022C13.534 18.7959 13.3687 18.738 13.1983 18.7381H13.1533C12.8823 18.7541 12.6106 18.7541 12.3396 18.7381C12.154 18.727 11.9709 18.7851 11.8258 18.9013L10.1589 20.2325C9.67381 20.0799 9.2032 19.8844 8.75268 19.6485L8.51268 17.5325C8.4922 17.348 8.40401 17.1776 8.26518 17.0544C8.06222 16.8739 7.87002 16.6817 7.68956 16.4788C7.56631 16.3399 7.39594 16.2517 7.21143 16.2313L5.09455 15.995C4.85848 15.5445 4.66302 15.0739 4.51049 14.5888L5.8408 12.9256C5.95697 12.7805 6.0151 12.5974 6.00393 12.4119C5.98799 12.1409 5.98799 11.8692 6.00393 11.5981C6.0151 11.4126 5.95697 11.2295 5.8408 11.0844L4.51049 9.41845C4.66314 8.93333 4.8586 8.46272 5.09455 8.0122L7.21049 7.7722C7.39501 7.75172 7.56537 7.66353 7.68862 7.5247C7.86908 7.32174 8.06128 7.12954 8.26424 6.94908C8.40363 6.82574 8.49218 6.65499 8.51268 6.47001L8.74799 4.35408C9.19846 4.11801 9.66908 3.92255 10.1542 3.77001L11.8174 5.10033C11.9625 5.21649 12.1456 5.27462 12.3311 5.26345C12.6021 5.24751 12.8739 5.24751 13.1449 5.26345C13.3304 5.27462 13.5135 5.21649 13.6586 5.10033L15.3246 3.77001C15.8097 3.92266 16.2803 4.11812 16.7308 4.35408L16.9708 6.47001C16.9913 6.65453 17.0795 6.82489 17.2183 6.94814C17.4213 7.1286 17.6135 7.3208 17.7939 7.52376C17.9172 7.66259 18.0875 7.75078 18.2721 7.77126L20.3889 8.00658C20.625 8.45705 20.8205 8.92766 20.973 9.41283L19.6427 11.076C19.5254 11.2223 19.4672 11.4073 19.4796 11.5944H19.4824Z" fill="#1E1E1E"/>
</svg>
