<svg width="24" height="24" viewBox="0 0 24 24" fill="none" xmlns="http://www.w3.org/2000/svg">
<path d="M21.739 19.501C21.739 19.6999 21.66 19.8907 21.5193 20.0313C21.3787 20.172 21.1879 20.251 20.989 20.251H2.98901C2.7901 20.251 2.59934 20.172 2.45868 20.0313C2.31803 19.8907 2.23901 19.6999 2.23901 19.501V4.50098C2.23901 4.30206 2.31803 4.1113 2.45868 3.97065C2.59934 3.82999 2.7901 3.75098 2.98901 3.75098C3.18793 3.75098 3.37869 3.82999 3.51934 3.97065C3.66 4.1113 3.73901 4.30206 3.73901 4.50098V5.69066L8.98901 10.9407L11.4584 8.47035C11.528 8.40062 11.6108 8.3453 11.7018 8.30756C11.7929 8.26981 11.8905 8.25039 11.989 8.25039C12.0876 8.25039 12.1852 8.26981 12.2762 8.30756C12.3673 8.3453 12.45 8.40062 12.5196 8.47035L17.989 13.9407V12.001C17.989 11.8021 18.068 11.6113 18.2087 11.4706C18.3493 11.33 18.5401 11.251 18.739 11.251C18.9379 11.251 19.1287 11.33 19.2693 11.4706C19.41 11.6113 19.489 11.8021 19.489 12.001V15.751C19.4904 15.776 19.4904 15.801 19.489 15.826C19.489 15.8363 19.489 15.8457 19.4843 15.856C19.4796 15.8663 19.4843 15.8841 19.4778 15.8991C19.4757 15.9108 19.4729 15.9224 19.4693 15.9338C19.4693 15.946 19.4637 15.9582 19.46 15.9704C19.4562 15.9825 19.4525 15.9919 19.4487 16.0032L19.4356 16.0397L19.4215 16.0688C19.4159 16.081 19.4103 16.0941 19.4037 16.1063C19.3971 16.1185 19.3934 16.1232 19.3887 16.1325L19.3662 16.1691L19.3465 16.1954L19.3221 16.2282C19.3118 16.2413 19.2996 16.2535 19.2884 16.2657L19.2734 16.2825L19.2575 16.2966C19.245 16.3089 19.2319 16.3205 19.2181 16.3313C19.2085 16.3396 19.1985 16.3474 19.1881 16.3547L19.16 16.3754L19.1243 16.3969C19.1153 16.4028 19.1059 16.4081 19.0962 16.4129L19.0615 16.4307L19.0296 16.4447L18.9959 16.4569C18.9843 16.4618 18.9724 16.4659 18.9603 16.4691L18.9265 16.4785C18.9134 16.4785 18.9021 16.485 18.889 16.4869L18.8496 16.4935L18.8168 16.4982C18.7922 16.4996 18.7674 16.4996 18.7428 16.4982H14.989C14.7901 16.4982 14.5993 16.4191 14.4587 16.2785C14.318 16.1378 14.239 15.9471 14.239 15.7482C14.239 15.5493 14.318 15.3585 14.4587 15.2178C14.5993 15.0772 14.7901 14.9982 14.989 14.9982H16.9287L11.989 10.0613L9.51964 12.5316C9.44999 12.6013 9.36727 12.6567 9.27622 12.6944C9.18517 12.7321 9.08758 12.7516 8.98901 12.7516C8.89045 12.7516 8.79286 12.7321 8.70181 12.6944C8.61076 12.6567 8.52804 12.6013 8.45839 12.5316L3.73901 7.81129V18.751H20.989C21.1879 18.751 21.3787 18.83 21.5193 18.9706C21.66 19.1113 21.739 19.3021 21.739 19.501Z" fill="#11A770"/>
</svg>
