<svg width="24" height="24" viewBox="0 0 24 24" fill="none" xmlns="http://www.w3.org/2000/svg">
<path d="M22.1937 17.6272L13.9952 3.38934C13.7904 3.04052 13.4979 2.75129 13.1468 2.55033C12.7957 2.34937 12.3982 2.24365 11.9937 2.24365C11.5891 2.24365 11.1916 2.34937 10.8406 2.55033C10.4895 2.75129 10.197 3.04052 9.99212 3.38934L1.79368 17.6272C1.59656 17.9645 1.49268 18.3483 1.49268 18.739C1.49268 19.1298 1.59656 19.5135 1.79368 19.8509C1.99593 20.2018 2.2879 20.4926 2.63965 20.6935C2.99139 20.8943 3.39023 20.9979 3.79524 20.9937H20.1921C20.5968 20.9976 20.9953 20.8938 21.3467 20.693C21.698 20.4922 21.9897 20.2016 22.1918 19.8509C22.3892 19.5137 22.4934 19.13 22.4938 18.7393C22.4941 18.3485 22.3905 17.9647 22.1937 17.6272ZM20.8934 19.1C20.8219 19.2219 20.7193 19.3226 20.5961 19.3918C20.4728 19.461 20.3334 19.4962 20.1921 19.4937H3.79524C3.65394 19.4962 3.51453 19.461 3.3913 19.3918C3.26808 19.3226 3.16547 19.2219 3.09399 19.1C3.02925 18.9904 2.9951 18.8654 2.9951 18.7381C2.9951 18.6108 3.02925 18.4858 3.09399 18.3762L11.2924 4.1384C11.3653 4.01706 11.4684 3.91666 11.5916 3.84695C11.7148 3.77725 11.854 3.74061 11.9956 3.74061C12.1371 3.74061 12.2763 3.77725 12.3995 3.84695C12.5227 3.91666 12.6258 4.01706 12.6987 4.1384L20.8971 18.3762C20.9613 18.4862 20.9948 18.6113 20.9941 18.7386C20.9935 18.8659 20.9587 18.9907 20.8934 19.1ZM11.2437 13.4937V9.74371C11.2437 9.5448 11.3227 9.35404 11.4634 9.21338C11.604 9.07273 11.7948 8.99371 11.9937 8.99371C12.1926 8.99371 12.3834 9.07273 12.524 9.21338C12.6647 9.35404 12.7437 9.5448 12.7437 9.74371V13.4937C12.7437 13.6926 12.6647 13.8834 12.524 14.024C12.3834 14.1647 12.1926 14.2437 11.9937 14.2437C11.7948 14.2437 11.604 14.1647 11.4634 14.024C11.3227 13.8834 11.2437 13.6926 11.2437 13.4937ZM13.1187 16.8687C13.1187 17.0912 13.0527 17.3087 12.9291 17.4937C12.8055 17.6787 12.6298 17.8229 12.4242 17.9081C12.2186 17.9932 11.9924 18.0155 11.7742 17.9721C11.556 17.9287 11.3555 17.8215 11.1982 17.6642C11.0409 17.5069 10.9337 17.3064 10.8903 17.0882C10.8469 16.87 10.8692 16.6438 10.9543 16.4382C11.0395 16.2326 11.1837 16.0569 11.3687 15.9333C11.5537 15.8097 11.7712 15.7437 11.9937 15.7437C12.2921 15.7437 12.5782 15.8622 12.7892 16.0732C13.0002 16.2842 13.1187 16.5703 13.1187 16.8687Z" fill="#11A770"/>
</svg>
